<svg width="16" height="16" viewBox="0 0 16 16" fill="none" xmlns="http://www.w3.org/2000/svg">
<path d="M7.10197 0.0571176C3.4145 0.469726 0.448494 3.52303 0.0476819 7.23651C-0.35313 11.115 1.81125 14.5809 5.09791 15.9013C5.3384 15.9838 5.57889 15.8188 5.57889 15.4887V14.1683C5.57889 14.1683 5.25824 14.2509 4.85743 14.2509C3.73515 14.2509 3.25418 13.2606 3.17402 12.6829C3.09385 12.3529 2.93353 12.1053 2.69304 11.8577C2.45255 11.7752 2.37239 11.7752 2.37239 11.6927C2.37239 11.5276 2.61288 11.5276 2.69304 11.5276C3.17402 11.5276 3.57483 12.1053 3.73515 12.3529C4.13596 13.013 4.61694 13.1781 4.85743 13.1781C5.17808 13.1781 5.41856 13.0956 5.57889 13.013C5.65905 12.4354 5.89954 11.8577 6.38051 11.5276C4.53678 11.115 3.17402 10.0422 3.17402 8.22677C3.17402 7.31903 3.57483 6.41129 4.13596 5.75112C4.0558 5.58607 3.97564 5.17347 3.97564 4.59581C3.97564 4.26573 3.97564 3.7706 4.21613 3.27547C4.21613 3.27547 5.3384 3.27547 6.46067 4.34825C6.86149 4.18321 7.42262 4.10068 7.98376 4.10068C8.5449 4.10068 9.10603 4.18321 9.58701 4.34825C10.6291 3.27547 11.8316 3.27547 11.8316 3.27547C11.9919 3.7706 11.9919 4.26573 11.9919 4.59581C11.9919 5.25599 11.9117 5.58607 11.8316 5.75112C12.3927 6.41129 12.7935 7.23651 12.7935 8.22677C12.7935 10.0422 11.4307 11.115 9.58701 11.5276C10.068 11.9402 10.3886 12.6829 10.3886 13.4256V15.5712C10.3886 15.8188 10.6291 16.0663 10.9498 15.9838C13.9158 14.746 16 11.7752 16 8.30929C16 3.35799 11.9117 -0.520535 7.10197 0.0571176Z" fill="#FCCF3D" fill-opacity="0.65"/>
</svg>
