<svg width="14" height="14" viewBox="0 0 14 14" fill="none" xmlns="http://www.w3.org/2000/svg">
<path d="M5.93818 4H3.96909V4.98455H2.98455V5.96909H2V8.92273H2.98455V9.90727H3.96909V10.8918H4.95364V11.8764H5.93818V12.8609H6.92273V13.8455H7.90727V12.8609H8.89182V11.8764H9.87636V10.8918H10.8609V9.90727H11.8455V8.92273H12.83V5.96909H11.8455V4.98455H10.8609V4H8.89182V4.98455H7.90727V5.96909H6.92273V4.98455H5.93818V4ZM5.93818 4.98455V5.96909H6.92273V6.95364H7.90727V5.96909H8.89182V4.98455H10.8609V5.96909H11.8455V8.92273H10.8609V9.90727H9.87636V10.8918H8.89182V11.8764H7.90727V12.8609H6.92273V11.8764H5.93818V10.8918H4.95364V9.90727H3.96909V8.92273H2.98455V5.96909H3.96909V4.98455H5.93818Z" fill="white"/>
</svg>
