<svg width="14" height="14" viewBox="0 0 14 14" fill="none" xmlns="http://www.w3.org/2000/svg">
<path d="M4.08333 1.16666H9.91667V2.33333H4.08333V1.16666ZM2.91667 3.5V2.33333H4.08333V3.5H2.91667ZM2.91667 8.16666H1.75V3.5H2.91667V8.16666ZM4.08333 9.33333H2.91667V8.16666H4.08333V9.33333ZM5.25 10.5H4.08333V9.33333H5.25V10.5ZM6.41667 11.6667H5.25V10.5H6.41667V11.6667ZM7.58333 11.6667V12.8333H6.41667V11.6667H7.58333ZM8.75 10.5V11.6667H7.58333V10.5H8.75ZM9.91667 9.33333V10.5H8.75V9.33333H9.91667ZM11.0833 8.16666V9.33333H9.91667V8.16666H11.0833ZM11.0833 3.5H12.25V8.16666H11.0833V3.5ZM11.0833 3.5V2.33333H9.91667V3.5H11.0833ZM8.16667 4.66666H5.83333V7H8.16667V4.66666Z" fill="white"/>
</svg>
